<svg width="15" height="23" viewBox="0 0 15 23" fill="none" xmlns="http://www.w3.org/2000/svg">
<path d="M14.25 20.125C14.25 20.8212 13.9734 21.4889 13.4812 21.9812C12.9889 22.4734 12.3212 22.75 11.625 22.75C10.9288 22.75 10.2611 22.4734 9.76884 21.9812C9.27656 21.4889 9 20.8212 9 20.125C9 19.4288 9.27656 18.7611 9.76884 18.2688C10.2611 17.7766 10.9288 17.5 11.625 17.5C12.3212 17.5 12.9889 17.7766 13.4812 18.2688C13.9734 18.7611 14.25 19.4288 14.25 20.125ZM14.25 11.375C14.25 12.0712 13.9734 12.7389 13.4812 13.2312C12.9889 13.7234 12.3212 14 11.625 14C10.9288 14 10.2611 13.7234 9.76884 13.2312C9.27656 12.7389 9 12.0712 9 11.375C9 10.6788 9.27656 10.0111 9.76884 9.51884C10.2611 9.02656 10.9288 8.75 11.625 8.75C12.3212 8.75 12.9889 9.02656 13.4812 9.51884C13.9734 10.0111 14.25 10.6788 14.25 11.375ZM14.25 2.625C14.25 3.32119 13.9734 3.98887 13.4812 4.48116C12.9889 4.97344 12.3212 5.25 11.625 5.25C10.9288 5.25 10.2611 4.97344 9.76884 4.48116C9.27656 3.98887 9 3.32119 9 2.625C9 1.92881 9.27656 1.26113 9.76884 0.768845C10.2611 0.276562 10.9288 0 11.625 0C12.3212 0 12.9889 0.276562 13.4812 0.768845C13.9734 1.26113 14.25 1.92881 14.25 2.625Z" fill="black"/>
<path d="M5.25 20.125C5.25 20.8212 4.97344 21.4889 4.48116 21.9812C3.98887 22.4734 3.32119 22.75 2.625 22.75C1.92881 22.75 1.26113 22.4734 0.768844 21.9812C0.276561 21.4889 0 20.8212 0 20.125C0 19.4288 0.276561 18.7611 0.768844 18.2688C1.26113 17.7766 1.92881 17.5 2.625 17.5C3.32119 17.5 3.98887 17.7766 4.48116 18.2688C4.97344 18.7611 5.25 19.4288 5.25 20.125ZM5.25 11.375C5.25 12.0712 4.97344 12.7389 4.48116 13.2312C3.98887 13.7234 3.32119 14 2.625 14C1.92881 14 1.26113 13.7234 0.768844 13.2312C0.276561 12.7389 0 12.0712 0 11.375C0 10.6788 0.276561 10.0111 0.768844 9.51884C1.26113 9.02656 1.92881 8.75 2.625 8.75C3.32119 8.75 3.98887 9.02656 4.48116 9.51884C4.97344 10.0111 5.25 10.6788 5.25 11.375ZM5.25 2.625C5.25 3.32119 4.97344 3.98887 4.48116 4.48116C3.98887 4.97344 3.32119 5.25 2.625 5.25C1.92881 5.25 1.26113 4.97344 0.768844 4.48116C0.276561 3.98887 0 3.32119 0 2.625C0 1.92881 0.276561 1.26113 0.768844 0.768845C1.26113 0.276562 1.92881 0 2.625 0C3.32119 0 3.98887 0.276562 4.48116 0.768845C4.97344 1.26113 5.25 1.92881 5.25 2.625Z" fill="black"/>
</svg>
